# xmcd CD database file generated by Grip 3.3.1
# 
# Track frame offsets:
#       150
#       11160
#       26172
#       47406
#       67635
#       89174
#       109561
#       130275
#       146911
#       169523
#       186111
#       208513
# 
# Disc length: 2958 seconds
# 
# Revision: 1
# Processed by: cddbd v1.5.2PL0 Copyright (c) Steve Scherf et al.
# Submitted via: Grip 3.3.1
# 
DISCID=a30b8c0c
DTITLE=Damon Fowler - Sugar Shack
DYEAR=2009
DGENRE=Blues
TTITLE0=Some Fun
TTITLE1=VFW
TTITLE2=I Hope It's Gonna Rain
TTITLE3=Lonely Blues
TTITLE4=James
TTITLE5=Sugar Lee
TTITLE6=Sugar Shack
TTITLE7=Tonight The Bottle Let Me Down
TTITLE8=Third Rate Romance
TTITLE9=Wrong Side Of The Road
TTITLE10=Don't Know Why I Love You
TTITLE11=I'm Just An Old Chunk Of Coal
EXTD=YEAR: 2009
EXTT0=
EXTT1=
EXTT2=
EXTT3=
EXTT4=
EXTT5=
EXTT6=
EXTT7=
EXTT8=
EXTT9=
EXTT10=
EXTT11=
PLAYORDER=
